<?xml version="1.0" encoding="UTF-8"?>
<svg width="17px" height="17px" viewBox="0 0 17 17" version="1.1" xmlns="http://www.w3.org/2000/svg" xmlns:xlink="http://www.w3.org/1999/xlink">
    <!-- Generator: Sketch 56.3 (81716) - https://sketch.com -->
    <title>Shape</title>
    <desc>Created with Sketch.</desc>
    <g id="Page-1" stroke="none" stroke-width="1" fill="none" fill-rule="evenodd">
        <g id="Agate_Wallet_Flip" transform="translate(-92.000000, -63.000000)" fill="#BEBEBE">
            <g id="Group-2" transform="translate(78.000000, 49.000000)">
                <path d="M22.5,14 C17.808,14 14,17.808 14,22.5 C14,27.192 17.808,31 22.5,31 C27.192,31 31,27.192 31,22.5 C31,17.808 27.192,14 22.5,14 L22.5,14 Z M23.35,28.45 L21.65,28.45 L21.65,26.75 L23.35,26.75 L23.35,28.45 L23.35,28.45 Z M25.1095,21.8625 L24.3445,22.6445 C23.7325,23.265 23.35,23.775 23.35,25.05 L21.65,25.05 L21.65,24.625 C21.65,23.69 22.0325,22.84 22.6445,22.2195 L23.6985,21.1485 C24.013,20.8425 24.2,20.4175 24.2,19.95 C24.2,19.015 23.435,18.25 22.5,18.25 C21.565,18.25 20.8,19.015 20.8,19.95 L19.1,19.95 C19.1,18.0715 20.6215,16.55 22.5,16.55 C24.3785,16.55 25.9,18.0715 25.9,19.95 C25.9,20.698 25.594,21.378 25.1095,21.8625 L25.1095,21.8625 Z" id="Shape"></path>
            </g>
        </g>
    </g>
</svg>