<?xml version="1.0" encoding="UTF-8"?>
<svg width="17px" height="17px" viewBox="0 0 17 17" version="1.1" xmlns="http://www.w3.org/2000/svg" xmlns:xlink="http://www.w3.org/1999/xlink">
    <!-- Generator: Sketch 56.3 (81716) - https://sketch.com -->
    <title>Shape</title>
    <desc>Created with Sketch.</desc>
    <g id="Page-1" stroke="none" stroke-width="1" fill="none" fill-rule="evenodd">
        <g id="Agate_Wallet_Flip" transform="translate(-152.000000, -64.000000)" fill="#BEBEBE">
            <g id="Group-4" transform="translate(138.000000, 49.000000)">
                <path d="M29.3,15 L15.7,15 C14.765,15 14.0085,15.765 14.0085,16.7 L14,32 L17.4,28.6 L29.3,28.6 C30.235,28.6 31,27.835 31,26.9 L31,16.7 C31,15.765 30.235,15 29.3,15 L29.3,15 Z M19.95,22.65 L18.25,22.65 L18.25,20.95 L19.95,20.95 L19.95,22.65 L19.95,22.65 Z M23.35,22.65 L21.65,22.65 L21.65,20.95 L23.35,20.95 L23.35,22.65 L23.35,22.65 Z M26.75,22.65 L25.05,22.65 L25.05,20.95 L26.75,20.95 L26.75,22.65 L26.75,22.65 Z" id="Shape"></path>
            </g>
        </g>
    </g>
</svg>